<?xml version="1.0" encoding="utf-8"?>
<!-- Generator: Adobe Illustrator 26.5.0, SVG Export Plug-In . SVG Version: 6.00 Build 0)  -->
<svg version="1.1" id="Layer_1" xmlns="http://www.w3.org/2000/svg" xmlns:xlink="http://www.w3.org/1999/xlink" x="0px" y="0px"
	 viewBox="0 0 140 140" style="enable-background:new 0 0 140 140;" xml:space="preserve">
<style type="text/css">
	.st0{fill:#6735F9;}
	.st1{fill:#FFFFFF;}
	.st2{fill:#213038;}
	.st3{opacity:0.15;}
</style>
<g>
	<rect x="-0.6" y="0" class="st0" width="140" height="140"/>
	<g>
		<path class="st1" d="M49.8,21.3H29.7c-4.3,0-7.7,3.5-7.7,7.7v84.2c0,4.3,3.5,7.7,7.7,7.7h20.1c4.3,0,7.7-3.5,7.7-7.7V29
			C57.5,24.8,54.1,21.3,49.8,21.3z"/>
		<path class="st1" d="M86.1,29v84.2c0,4.3,3.5,7.7,7.7,7.7h20.1c4.3,0,7.7-3.5,7.7-7.7V29c0-4.3-3.5-7.7-7.7-7.7H93.8
			C89.5,21.3,86.1,24.8,86.1,29z"/>
		<g>
			<path class="st2" d="M49.8,21.3c4.3,0,7.7,3.5,7.7,7.7v84.2c0,4.3-3.5,7.7-7.7,7.7H29.7c-4.3,0-7.7-3.5-7.7-7.7V29
				c0-4.3,3.5-7.7,7.7-7.7H49.8 M49.8,15.3H29.7C22.2,15.3,16,21.5,16,29v84.2c0,7.6,6.1,13.7,13.7,13.7h20.1
				c7.6,0,13.7-6.1,13.7-13.7V29C63.5,21.5,57.4,15.3,49.8,15.3L49.8,15.3z"/>
			<path class="st2" d="M113.9,21.3c4.3,0,7.7,3.5,7.7,7.7v84.2c0,4.3-3.5,7.7-7.7,7.7H93.8c-4.3,0-7.7-3.5-7.7-7.7V29
				c0-4.3,3.5-7.7,7.7-7.7H113.9 M113.9,15.3H93.8c-7.6,0-13.7,6.1-13.7,13.7v84.2c0,7.6,6.1,13.7,13.7,13.7h20.1
				c7.6,0,13.7-6.1,13.7-13.7V29C127.6,21.5,121.5,15.3,113.9,15.3L113.9,15.3z"/>
		</g>
		<path class="st3" d="M22,71.1v42.1c0,4.3,3.5,7.7,7.7,7.7h20.1c4.3,0,7.7-3.5,7.7-7.7V71.1H22z"/>
		<path class="st3" d="M86.1,71.1v42.1c0,4.3,3.5,7.7,7.7,7.7h20.1c4.3,0,7.7-3.5,7.7-7.7V71.1H86.1z"/>
	</g>
	<rect x="0.6" y="0" class="st0" width="140" height="140"/>
	<g>
		<path class="st1" d="M48.6,21.3H28.5c-4.3,0-7.7,3.5-7.7,7.7v84.2c0,4.3,3.5,7.7,7.7,7.7h20.1c4.3,0,7.7-3.5,7.7-7.7V29
			C56.3,24.8,52.9,21.3,48.6,21.3z"/>
		<path class="st1" d="M84.9,29v84.2c0,4.3,3.5,7.7,7.7,7.7h20.1c4.3,0,7.7-3.5,7.7-7.7V29c0-4.3-3.5-7.7-7.7-7.7H92.6
			C88.3,21.3,84.9,24.8,84.9,29z"/>
		<g>
			<path class="st2" d="M48.6,21.3c4.3,0,7.7,3.5,7.7,7.7v84.2c0,4.3-3.5,7.7-7.7,7.7H28.5c-4.3,0-7.7-3.5-7.7-7.7V29
				c0-4.3,3.5-7.7,7.7-7.7H48.6 M48.6,15.3H28.5c-7.6,0-13.7,6.1-13.7,13.7v84.2c0,7.6,6.1,13.7,13.7,13.7h20.1
				c7.6,0,13.7-6.1,13.7-13.7V29C62.3,21.5,56.2,15.3,48.6,15.3L48.6,15.3z"/>
			<path class="st2" d="M112.7,21.3c4.3,0,7.7,3.5,7.7,7.7v84.2c0,4.3-3.5,7.7-7.7,7.7H92.6c-4.3,0-7.7-3.5-7.7-7.7V29
				c0-4.3,3.5-7.7,7.7-7.7H112.7 M112.7,15.3H92.6c-7.6,0-13.7,6.1-13.7,13.7v84.2c0,7.6,6.1,13.7,13.7,13.7h20.1
				c7.6,0,13.7-6.1,13.7-13.7V29C126.4,21.5,120.2,15.3,112.7,15.3L112.7,15.3z"/>
		</g>
		<path class="st3" d="M20.8,71.1v42.1c0,4.3,3.5,7.7,7.7,7.7h20.1c4.3,0,7.7-3.5,7.7-7.7V71.1H20.8z"/>
		<path class="st3" d="M84.9,71.1v42.1c0,4.3,3.5,7.7,7.7,7.7h20.1c4.3,0,7.7-3.5,7.7-7.7V71.1H84.9z"/>
	</g>
</g>
</svg>
