<?xml version="1.0" encoding="utf-8"?>
<!-- Generator: Adobe Illustrator 26.5.0, SVG Export Plug-In . SVG Version: 6.00 Build 0)  -->
<svg version="1.1" id="Layer_1" xmlns="http://www.w3.org/2000/svg" xmlns:xlink="http://www.w3.org/1999/xlink" x="0px" y="0px"
	 viewBox="0 0 140 140" style="enable-background:new 0 0 140 140;" xml:space="preserve">
<style type="text/css">
	.st0{fill:#6735F9;}
	.st1{fill:#10054D;}
	.st2{fill:#FFFFFF;}
	.st3{opacity:0.15;}
</style>
<rect class="st0" width="140" height="140"/>
<g>
	<path class="st1" d="M41.4,16c3.1,0,6.3,0.8,9.2,2.5L113.8,55c12.4,7.1,12.4,25,0,32.1l-63.2,36.5c-3,1.7-6.2,2.5-9.2,2.5
		c-9.7,0-18.6-7.7-18.6-18.6V34.5C22.8,23.7,31.7,16,41.4,16 M41.4,10c-13.5,0-24.5,11-24.5,24.5v72.9c0,13.5,11,24.5,24.5,24.5
		c4.2,0,8.5-1.1,12.2-3.3l63.2-36.5C124.4,87.8,129,79.9,129,71c0-8.9-4.6-16.8-12.3-21.2L53.6,13.3C49.8,11.1,45.6,10,41.4,10
		L41.4,10z"/>
	<path class="st2" d="M113.8,55L50.6,18.5c-12.4-7.1-27.8,1.8-27.8,16.1v72.9c0,14.3,15.4,23.2,27.8,16.1l63.2-36.5
		C126.1,79.9,126.1,62.1,113.8,55z"/>
	<path class="st3" d="M22.8,107.5c0,14.3,15.4,23.2,27.8,16.1l63.2-36.5c6.2-3.6,9.3-9.8,9.3-16.1H22.8V107.5z"/>
</g>
</svg>
