<?xml version="1.0" encoding="utf-8"?>
<!-- Generator: Adobe Illustrator 26.5.0, SVG Export Plug-In . SVG Version: 6.00 Build 0)  -->
<svg version="1.1" id="Layer_1" xmlns="http://www.w3.org/2000/svg" xmlns:xlink="http://www.w3.org/1999/xlink" x="0px" y="0px"
	 viewBox="0 0 140 140" style="enable-background:new 0 0 140 140;" xml:space="preserve">
<style type="text/css">
	.st0{fill:#6735F9;}
	.st1{fill:#FFFFFF;}
	.st2{fill:#213038;}
	.st3{opacity:0.15;}
</style>
<g>
	<rect x="0" class="st0" width="140" height="140"/>
	<g>
		<path class="st1" d="M76.2,18.4C53,18.4,33.3,33.1,26,53.7H15c-4.6,0-7.5,5-5.2,9l21.4,37c2.3,4,8,4,10.3,0l21.4-37
			c2.3-4-0.6-9-5.2-9H47.5c15.5-25.7,61-19.7,62.5,18c0,16.1-11.4,29.7-26.5,33c-4.4,1-7.5,4.9-7.5,9.4c0,6.1,5.6,10.8,11.6,9.5
			C146.7,111.1,143,21.1,76.2,18.4z"/>
		<path class="st2" d="M76.2,18.4c66.8,2.7,70.5,92.7,11.4,105.3c-0.7,0.1-1.3,0.2-2,0.2c-5.2,0-9.6-4.3-9.6-9.7
			c0-4.5,3.1-8.5,7.5-9.4c15.1-3.3,26.5-16.8,26.5-33c-0.9-22.4-17.3-33.6-33.8-33.6c-11.2,0-22.4,5.2-28.7,15.6h10.2
			c4.6,0,7.5,5,5.2,9l-21.4,37c-1.1,2-3.2,3-5.2,3c-2,0-4-1-5.2-3l-21.4-37c-2.3-4,0.6-9,5.2-9h11C33.3,33.1,53,18.4,76.2,18.4
			 M76.2,13.6c-23.3,0-44.4,14.1-53.5,35.4H15c-3.9,0-7.3,2-9.3,5.4c-1.9,3.4-1.9,7.4,0,10.7l21.4,37c1.9,3.4,5.4,5.4,9.3,5.4
			c3.9,0,7.3-2,9.3-5.4l21.4-37c1.9-3.4,1.9-7.4,0-10.7c-1.9-3.3-5.3-5.3-9.1-5.4c5-3.9,11.4-6.1,18.3-6.1c13.9,0,28.2,8.9,29,28.9
			c0,13.5-9.6,25.4-22.8,28.3c-6.5,1.4-11.2,7.3-11.2,14.1c0,8,6.4,14.5,14.4,14.5c1,0,2-0.1,3-0.3c34.1-7.2,47.3-37.1,45.3-61.8
			c-2.1-25.2-20.7-51.4-57.4-52.9C76.3,13.6,76.3,13.6,76.2,13.6L76.2,13.6z"/>
		<path class="st3" d="M31.2,99.7c2.3,4,8,4,10.3,0L58,71.1H14.7L31.2,99.7z"/>
		<path class="st3" d="M110,71.7c0,16.1-11.4,29.7-26.5,33c-4.4,1-7.5,4.9-7.5,9.4c0,6.1,5.6,10.8,11.6,9.5
			c28-5.9,41.9-29.3,41.7-52.5h-19.3C109.9,71.3,110,71.5,110,71.7z"/>
	</g>
</g>
</svg>
