<?xml version="1.0" encoding="utf-8"?>
<!-- Generator: Adobe Illustrator 26.5.0, SVG Export Plug-In . SVG Version: 6.00 Build 0)  -->
<svg version="1.1" id="Layer_1" xmlns="http://www.w3.org/2000/svg" xmlns:xlink="http://www.w3.org/1999/xlink" x="0px" y="0px"
	 viewBox="0 0 140 140" style="enable-background:new 0 0 140 140;" xml:space="preserve">
<style type="text/css">
	.st0{fill:#6735F9;}
	.st1{fill:#FFFFFF;stroke:#10054D;stroke-width:14;stroke-linecap:round;stroke-linejoin:round;stroke-miterlimit:10;}
	.st2{fill:#FFFFFF;}
	.st3{opacity:0.15;}
</style>
<g>
	<rect x="0" y="0" class="st0" width="140" height="140"/>
	<g>
		<g>
			<polygon class="st1" points="58.2,40.9 58.2,40.9 105.1,13.9 105.1,71.1 105.1,128.4 58.2,101.4 58.2,101.4 29.8,101.4 
				29.8,83.4 29.8,58.9 29.8,40.9 			"/>
		</g>
		<g>
			<polygon class="st2" points="58.2,40.9 58.2,40.9 105.1,13.9 105.1,71.1 105.1,128.4 58.2,101.4 58.2,101.4 29.8,101.4 
				29.8,83.4 29.8,58.9 29.8,40.9 			"/>
		</g>
		<polygon class="st3" points="29.8,68.4 29.8,83.4 29.8,101.4 58.2,101.4 58.2,101.4 105.1,128.4 105.1,71.1 105.1,68.4 		"/>
	</g>
</g>
</svg>
