<?xml version="1.0" encoding="utf-8"?>
<!-- Generator: Adobe Illustrator 26.5.0, SVG Export Plug-In . SVG Version: 6.00 Build 0)  -->
<svg version="1.1" id="Layer_1" xmlns="http://www.w3.org/2000/svg" xmlns:xlink="http://www.w3.org/1999/xlink" x="0px" y="0px"
	 viewBox="0 0 35.3 26.9" style="enable-background:new 0 0 35.3 26.9;" xml:space="preserve">
<style type="text/css">
	.st0{clip-path:url(#SVGID_00000111891619713693096640000006336460273395256712_);}
	.st1{fill:#4B4D4F;}
</style>
<g id="Group_34" transform="translate(0 0)">
	<g>
		<defs>
			<rect id="SVGID_1_" width="35.3" height="26.9"/>
		</defs>
		<clipPath id="SVGID_00000008128019577854173790000012091476930799673016_">
			<use xlink:href="#SVGID_1_"  style="overflow:visible;"/>
		</clipPath>
		<g id="Group_33" style="clip-path:url(#SVGID_00000008128019577854173790000012091476930799673016_);">
			<path id="Path_5" class="st1" d="M1.9,26.9h31.6c1,0,1.8-0.8,1.8-1.8c0-0.7-0.4-1.4-1.1-1.7L31.5,21c1.1-0.1,2-1.1,2-2.2V2.2
				c0-1.2-1-2.2-2.2-2.2c0,0,0,0,0,0H4C2.8,0,1.8,1,1.8,2.2c0,0,0,0,0,0v16.7c0,1.2,0.9,2.1,2,2.2l-2.8,2.4
				c-0.3,0.1-0.6,0.4-0.8,0.7l0,0h0c-0.6,0.9-0.3,2,0.6,2.6C1.1,26.8,1.5,26.9,1.9,26.9 M2.6,25.7c-0.2,0-0.4-0.2-0.4-0.4
				c0-0.2,0.2-0.4,0.4-0.4c0.2,0,0.4,0.2,0.4,0.4C2.9,25.5,2.8,25.7,2.6,25.7C2.6,25.7,2.6,25.7,2.6,25.7 M4,25.7
				c-0.2,0-0.4-0.2-0.4-0.4C3.7,25.1,3.8,25,4,25c0.2,0,0.4,0.2,0.4,0.4C4.4,25.5,4.2,25.7,4,25.7C4,25.7,4,25.7,4,25.7 M5.6,25.7
				c-0.2,0-0.4-0.2-0.4-0.4c0-0.2,0.2-0.4,0.4-0.4c0.2,0,0.4,0.2,0.4,0.4C5.9,25.5,5.8,25.7,5.6,25.7C5.6,25.7,5.6,25.7,5.6,25.7
				 M18.9,25.7h-3.1c-0.2,0-0.4-0.2-0.3-0.4c0-0.2,0.2-0.3,0.3-0.3h3.1c0.2,0,0.4,0.1,0.4,0.3C19.3,25.5,19.2,25.7,18.9,25.7
				C19,25.7,19,25.7,18.9,25.7 M17.6,1.3c0.2,0,0.4,0.2,0.4,0.4c0,0.2-0.2,0.4-0.4,0.4c-0.2,0-0.4-0.2-0.4-0.4c0,0,0,0,0,0
				C17.2,1.5,17.4,1.3,17.6,1.3 M3.8,3.3h27.6v14.5H3.8V3.3z M4.5,21.4h0.7l-2,1.7h28.9l-2-1.7h0.7l2.3,2H2.1L4.5,21.4z"/>
		</g>
	</g>
</g>
</svg>
