<?xml version="1.0" encoding="utf-8"?>
<!-- Generator: Adobe Illustrator 26.5.0, SVG Export Plug-In . SVG Version: 6.00 Build 0)  -->
<svg version="1.1" id="Layer_1" xmlns="http://www.w3.org/2000/svg" xmlns:xlink="http://www.w3.org/1999/xlink" x="0px" y="0px"
	 viewBox="0 0 284.7 115.7" style="enable-background:new 0 0 284.7 115.7;" xml:space="preserve">
<style type="text/css">
	.st0{fill:#6735F9;}
	.st1{fill:#D0DD44;}
	.st2{fill:#FFFFFF;}
</style>
<g>
	<path class="st0" d="M82.8,45.9c-2.5-3-6.2-4.7-10.9-4.7c-9.6,0-16.6,7.8-16.6,18.5c0,10.7,7,18.5,16.2,18.5
		c5.1,0,9.2-2.3,11.8-6.2l10.5,7.9c-4.8,6.8-12.9,10-20.7,10c-17.9,0-30.9-11.7-30.9-30.1c0-18.4,13-30.1,30.9-30.1
		c6.4,0,14.5,2.2,19.4,8.4L82.8,45.9z"/>
	<path class="st0" d="M128.7,29.6c17.9,0,30.9,11.7,30.9,30.1c0,18.4-13,30.1-30.9,30.1c-17.9,0-30.9-11.7-30.9-30.1
		C97.7,41.3,110.8,29.6,128.7,29.6z M128.7,78.2c10.8,0,17.8-7.8,17.8-18.5c0-10.7-7-18.5-17.8-18.5c-10.8,0-17.8,7.8-17.8,18.5
		C110.9,70.4,117.9,78.2,128.7,78.2z"/>
	<path class="st0" d="M168.2,31h18.9c18.5,0,33.9,7.9,33.9,28.8c0,18.5-15.1,28.5-32.2,28.5h-20.6V31z M180.8,76.7h6.6
		c11.7,0,20.6-4.5,20.6-17.5c0-11.3-9-16.5-19.7-16.5h-7.5V76.7z"/>
</g>
<g>
	<path class="st1" d="M229.4,38.2H242v50.2h-12.6V38.2z"/>
</g>
<circle class="st2" cx="235.8" cy="18.5" r="8.8"/>
<path class="st0" d="M20.8,106.7c-2,0-3.6-1.6-3.6-3.6V64.9c0-2.7-0.9-5.1-2.5-7.1c1.6-1.9,2.5-4.4,2.5-7.1V12.6
	c0-2,1.6-3.6,3.6-3.6c2.5,0,4.5-2,4.5-4.5S23.3,0,20.8,0C13.9,0,8.2,5.6,8.2,12.6v38.2c0,1.3-1.1,2.4-2.4,2.4H4.5
	c-2.5,0-4.5,2-4.5,4.5c0,0.1,0,0.1,0,0.2c0,0.1,0,0.1,0,0.2c0,2.5,2,4.5,4.5,4.5h1.3c1.3,0,2.4,1.1,2.4,2.4v38.2
	c0,6.9,5.6,12.6,12.6,12.6c2.5,0,4.5-2,4.5-4.5S23.3,106.7,20.8,106.7z"/>
<path class="st0" d="M263.9,9c2,0,3.6,1.6,3.6,3.6v38.2c0,2.7,0.9,5.1,2.5,7.1c-1.6,1.9-2.5,4.4-2.5,7.1v38.2c0,2-1.6,3.6-3.6,3.6
	c-2.5,0-4.5,2-4.5,4.5s2,4.5,4.5,4.5c6.9,0,12.6-5.6,12.6-12.6V64.9c0-1.3,1.1-2.4,2.4-2.4h1.3c2.5,0,4.5-2,4.5-4.5
	c0-0.1,0-0.1,0-0.2c0-0.1,0-0.1,0-0.2c0-2.5-2-4.5-4.5-4.5h-1.3c-1.3,0-2.4-1.1-2.4-2.4V12.6c0-6.9-5.6-12.6-12.6-12.6
	c-2.5,0-4.5,2-4.5,4.5S261.4,9,263.9,9z"/>
</svg>
