<?xml version="1.0" encoding="UTF-8"?>
<svg id="Heart" xmlns="http://www.w3.org/2000/svg" viewBox="0 0 491.93 444.42">
  <path id="red-heart" d="M491.79,132.72h-.02c.07-1.69,.13-3.38,.13-5.08C491.9,59.27,434.24,0,363.1,0c-52.01,0-96.79,33.48-117.12,76.14h-.03C225.62,33.48,180.84,0,128.83,0,57.69,0,.02,59.27,.02,127.64c0,1.7,.06,3.39,.13,5.08h-.02s-7.27,81.22,83.12,169.9c41.1,41.18,87.06,80.31,162.71,141.8,75.65-61.49,121.61-100.62,162.71-141.8,90.39-88.68,83.12-169.9,83.12-169.9Z" style="fill: #b01d10;"/>
</svg>