<?xml version="1.0" encoding="utf-8"?>
<!-- Generator: Adobe Illustrator 26.5.0, SVG Export Plug-In . SVG Version: 6.00 Build 0)  -->
<svg version="1.1" id="Layer_1" xmlns="http://www.w3.org/2000/svg" xmlns:xlink="http://www.w3.org/1999/xlink" x="0px" y="0px"
	 viewBox="0 0 12.1 17" style="enable-background:new 0 0 12.1 17;" xml:space="preserve">
<style type="text/css">
	.st0{clip-path:url(#SVGID_00000060731971545376439470000015069861239482047920_);}
	.st1{fill:#FFFFFF;}
</style>
<g>
	<defs>
		<rect id="SVGID_1_" width="12.1" height="17"/>
	</defs>
	<clipPath id="SVGID_00000070834169339082870380000005681482286042881419_">
		<use xlink:href="#SVGID_1_"  style="overflow:visible;"/>
	</clipPath>
	<g id="Group_1039" style="clip-path:url(#SVGID_00000070834169339082870380000005681482286042881419_);">
		<path id="Path_916" class="st1" d="M12.1,6.1c0-3.3-2.7-6-6-6s-6,2.7-6,6c0,1.2,0.4,2.4,1,3.4v0L6,17l5-7.5h0
			C11.7,8.4,12.1,7.3,12.1,6.1 M6,9.4c-1.9,0-3.4-1.5-3.4-3.4S4.2,2.7,6,2.7S9.4,4.2,9.4,6c0,0,0,0,0,0C9.4,7.9,7.9,9.4,6,9.4"/>
	</g>
</g>
</svg>
