<?xml version="1.0" encoding="utf-8"?>
<!-- Generator: Adobe Illustrator 26.5.0, SVG Export Plug-In . SVG Version: 6.00 Build 0)  -->
<svg version="1.1" id="Layer_1" xmlns="http://www.w3.org/2000/svg" xmlns:xlink="http://www.w3.org/1999/xlink" x="0px" y="0px"
	 viewBox="0 0 13.9 14.9" style="enable-background:new 0 0 13.9 14.9;" xml:space="preserve">
<style type="text/css">
	.st0{clip-path:url(#SVGID_00000177444528169513558810000002322179641413467534_);}
	.st1{fill:#FFFFFF;}
</style>
<g>
	<defs>
		<rect id="SVGID_1_" width="13.9" height="14.9"/>
	</defs>
	<clipPath id="SVGID_00000076568097725357127670000012274722240830152076_">
		<use xlink:href="#SVGID_1_"  style="overflow:visible;"/>
	</clipPath>
	<g id="Group_1041" style="clip-path:url(#SVGID_00000076568097725357127670000012274722240830152076_);">
		<path id="Path_917" class="st1" d="M5.2,4.4c0.8-1-0.1-2.2-0.6-3.1C4.3,0.8,3.8,0.1,3.2,0C2.6-0.1,2,0.6,1.6,1
			C0.6,1.9,0.1,3.1,0,4.4c0,0.2,0,0.4,0,0.2c0.1,0.8,0.2,1.6,0.5,2.3c0.3,0.7,0.6,1.4,1,2c0.9,1.4,1.9,2.6,3.1,3.7
			c1.1,1.1,2.5,1.9,4.1,2.3c1.4,0.3,2.9,0,4.1-1c0.4-0.3,1.2-0.8,1.2-1.4c-0.1-0.6-0.4-1.1-0.8-1.4c-0.9-0.8-2.2-2.1-3.3-1.1
			c-0.5,0.4-0.9,1.1-1.6,1.2c-0.6,0-1.2-0.3-1.6-0.7c-1-0.8-1.9-1.9-2.5-3.1C3.6,6.8,3.6,6.1,3.8,5.6C4.2,5.1,4.8,4.9,5.2,4.4"/>
	</g>
</g>
</svg>
