<?xml version="1.0" encoding="utf-8"?>
<!-- Generator: Adobe Illustrator 26.5.0, SVG Export Plug-In . SVG Version: 6.00 Build 0)  -->
<svg version="1.1" id="Layer_1" xmlns="http://www.w3.org/2000/svg" xmlns:xlink="http://www.w3.org/1999/xlink" x="0px" y="0px"
	 viewBox="0 0 27 28" style="enable-background:new 0 0 27 28;" xml:space="preserve">
<style type="text/css">
	.st0{fill:#5F57A4;}
	.st1{clip-path:url(#SVGID_00000096027187823219324080000013084206083479736469_);}
	.st2{fill:#FFFFFF;}
</style>
<ellipse id="Ellipse_9" class="st0" cx="13.5" cy="14" rx="13.5" ry="14"/>
<g>
	<g>
		<defs>
			<rect id="SVGID_1_" x="5" y="4.9" width="16.9" height="18.2"/>
		</defs>
		<clipPath id="SVGID_00000006673592951351649650000009659912181221524649_">
			<use xlink:href="#SVGID_1_"  style="overflow:visible;"/>
		</clipPath>
		<g id="Group_1041" style="clip-path:url(#SVGID_00000006673592951351649650000009659912181221524649_);">
			<path id="Path_917" class="st2" d="M11.4,10.3c1-1.2-0.1-2.7-0.7-3.8c-0.4-0.6-1-1.5-1.7-1.6C8.2,4.8,7.5,5.7,7,6.1
				c-1.2,1.1-1.8,2.6-2,4.1c0,0.2,0,0.5,0,0.2c0.1,1,0.2,2,0.6,2.8s0.7,1.7,1.2,2.4c1.1,1.7,2.3,3.2,3.8,4.5c1.3,1.3,3,2.3,5,2.8
				c1.7,0.4,3.5,0,5-1.2c0.5-0.4,1.5-1,1.5-1.7c-0.1-0.7-0.5-1.3-1-1.7c-1.1-1-2.7-2.6-4-1.3c-0.6,0.5-1.1,1.3-2,1.5
				c-0.7,0-1.5-0.4-2-0.9c-1.2-1-2.3-2.3-3-3.8c-0.7-0.7-0.7-1.6-0.5-2.2C10.1,11.1,10.9,10.9,11.4,10.3"/>
		</g>
	</g>
</g>
</svg>
