<?xml version="1.0" encoding="utf-8"?>
<!-- Generator: Adobe Illustrator 26.5.0, SVG Export Plug-In . SVG Version: 6.00 Build 0)  -->
<svg version="1.1" id="Layer_1" xmlns="http://www.w3.org/2000/svg" xmlns:xlink="http://www.w3.org/1999/xlink" x="0px" y="0px"
	 viewBox="0 0 27 28" style="enable-background:new 0 0 27 28;" xml:space="preserve">
<style type="text/css">
	.st0{fill:#5F57A4;}
	.st1{clip-path:url(#SVGID_00000090282631851961277100000014879378183905369735_);}
	.st2{fill:#FFFFFF;}
</style>
<ellipse id="Ellipse_9" class="st0" cx="13.5" cy="14" rx="13.5" ry="14"/>
<g>
	<g>
		<defs>
			<rect id="SVGID_1_" x="6.6" y="4.3" width="13.9" height="19.5"/>
		</defs>
		<clipPath id="SVGID_00000126310092189237662190000001357753421746223257_">
			<use xlink:href="#SVGID_1_"  style="overflow:visible;"/>
		</clipPath>
		<g id="Group_1039" style="clip-path:url(#SVGID_00000126310092189237662190000001357753421746223257_);">
			<path id="Path_916" class="st2" d="M20.4,11.3c0-3.8-3.1-6.9-6.9-6.9s-6.9,3.1-6.9,6.9c0,1.4,0.5,2.7,1.1,3.9l0,0l5.6,8.6
				l5.7-8.6l0,0C20,13.9,20.4,12.6,20.4,11.3 M13.4,15c-2.2,0-3.9-1.7-3.9-3.9s1.8-3.8,3.9-3.8s3.9,1.7,3.9,3.8l0,0
				C17.3,13.3,15.6,15,13.4,15"/>
		</g>
	</g>
</g>
</svg>
