<?xml version="1.0" encoding="UTF-8"?>
<svg id="orbitz-logo" xmlns="http://www.w3.org/2000/svg" viewBox="0 0 117.18 35.76">
  <defs>
    <style>
      .cls-1 {
        fill: #0c5e66;
      }

      .cls-2 {
        fill: #f38e1f;
      }

      .cls-3 {
        fill: #03a3b3;
      }
    </style>
  </defs>
  <g id="copy">
    <path class="cls-1" d="M51.92,13.33c-.85-.57-1.76-.85-2.72-.85-.79,0-1.59,.17-2.44,.57s-1.82,1.02-2.89,1.87v-3.46l-6.81,1.7,1.59,22.24h5.22v-14.3c1.7-1.65,3.06-2.44,4.14-2.44,.45,0,.91,.23,1.36,.68,.45,.45,.91,1.25,1.48,2.38l3.35-5.96c-.68-1.08-1.42-1.87-2.27-2.44Z"/>
    <polygon class="cls-1" points="74.73 35.46 79.67 35.24 80.75 14.64 74 14.64 74.73 35.46"/>
    <path class="cls-1" d="M69.12,13.16c-1.25-1.02-2.61-1.53-4.14-1.53-1.36,0-2.61,.45-3.8,1.36L61.57,0h-7.89l2.27,35.29h4.54l.06-2.16c1.36,1.19,2.84,1.82,4.37,1.82s2.89-.51,4.14-1.53c1.25-1.02,2.27-2.44,2.95-4.26,.74-1.76,1.08-3.74,1.08-5.9s-.34-4.09-1.08-5.84c-.68-1.82-1.65-3.23-2.89-4.26Zm-1.82,12.54c-.28,.91-.68,1.65-1.13,2.21-.51,.57-.96,.85-1.53,.85-.51,0-1.02-.28-1.48-.85-.45-.57-.85-1.31-1.13-2.21-.28-.91-.45-1.93-.45-2.95s.17-2.04,.45-2.95c.28-.91,.68-1.7,1.13-2.27,.45-.57,.96-.85,1.48-.85s1.02,.28,1.53,.85c.51,.57,.85,1.31,1.13,2.21,.28,.91,.45,1.93,.45,3.01-.06,1.02-.17,2.04-.45,2.95Z"/>
    <path class="cls-1" d="M91.98,30.87c-.06,0-.11-.57-.17-1.65-.06-1.08-.11-2.1-.06-3.06,.17-2.89,.68-6.81,1.59-11.75l4.82-.06,.28-4.82-4.26-.17c.4-2.38,.62-4.31,.68-5.79,.06-.74,.06-1.42,0-1.99l-7.89-.45c.34,1.53,.4,4.14,.17,7.89l-4.65-.23,1.08,5.96,3.18-.11-.28,4.03c-.23,4.03-.23,7.26,0,9.7,.23,2.44,.79,4.26,1.59,5.45,.79,1.19,1.93,1.82,3.35,1.93,.51,.06,1.02-.06,1.59-.17,.57-.17,1.31-.4,2.16-.74l-1.93-4.37c-.62,.23-1.08,.45-1.25,.4Z"/>
    <polygon class="cls-1" points="117.18 11.75 113.49 11.58 113.54 11.58 99.98 10.55 99.47 18.21 107.13 17.14 97.26 35.41 115.87 35.35 115.87 28.14 106.05 29.9 117.18 11.75"/>
    <path class="cls-1" d="M26.2,4.79c-2.72-1.84-5.96-2.81-9.34-2.81C7.56,1.98,0,9.54,0,18.84s7.56,16.86,16.86,16.86,16.86-7.56,16.86-16.86c0-2.99-.82-6-2.42-8.76-1.32-2.12-3.03-3.89-5.09-5.29Zm-9.34,25.9c-6.54,0-11.86-5.32-11.86-11.86S10.32,6.98,16.86,6.98c2.39,0,4.65,.68,6.54,1.95,1.47,1,2.7,2.27,3.61,3.72,1.12,1.93,1.71,4.07,1.71,6.18,0,6.54-5.32,11.86-11.86,11.86Z"/>
  </g>
  <circle id="orange-dot" class="cls-2" cx="77.94" cy="6.73" r="4.37"/>
  <g id="rotate">
    <path class="cls-2" d="M25.76,3.23c-2.41,0-4.37,1.96-4.37,4.37s1.96,4.37,4.37,4.37,4.37-1.96,4.37-4.37-1.96-4.37-4.37-4.37Z"/>
    <circle class="cls-2" cx="16.86" cy="18.84" r="4.87"/>
  </g>
  <circle id="blue-dot" class="cls-3" cx="16.86" cy="18.84" r="7.43"/>
</svg>