<?xml version="1.0" encoding="utf-8"?>
<!-- Generator: Adobe Illustrator 26.3.1, SVG Export Plug-In . SVG Version: 6.00 Build 0)  -->
<svg version="1.1" id="Layer_1" xmlns="http://www.w3.org/2000/svg" xmlns:xlink="http://www.w3.org/1999/xlink" x="0px" y="0px"
	 viewBox="0 0 200.7 62.7" style="enable-background:new 0 0 200.7 62.7;" xml:space="preserve">
<style type="text/css">
	.st0{fill:#AC9567;}
	.st1{fill:#E5E1DA;}
	.st2{fill:none;stroke:#AC9567;stroke-width:8;stroke-linecap:square;stroke-linejoin:bevel;stroke-miterlimit:10;}
	.st3{fill:#FFFFFF;}
</style>
<g>
	<g>
		<path class="st0" d="M59.5,23.2l12-3v6.1c1.9-1.5,3.6-2.6,5.1-3.3c1.5-0.7,2.9-1,4.3-1c1.7,0,3.3,0.5,4.8,1.5c1.5,1,2.8,2.4,4,4.3
			l-5.9,10.5c-1-2-1.8-3.4-2.6-4.2c-0.8-0.8-1.6-1.2-2.4-1.2c-1.9,0-4.3,1.4-7.3,4.3v25.2h-9.2L59.5,23.2z"/>
	</g>
</g>
<image style="overflow:visible;" width="16" height="16" xlink:href="F2784DCD.png"  transform="matrix(1 0 0 1 123.1372 7.1583)">
</image>
<polygon class="st0" points="125.9,62.5 134.6,62.1 136.5,25.8 124.6,25.8 "/>
<path class="st0" d="M116,23.2c-2.2-1.8-4.6-2.7-7.3-2.7c-2.4,0-4.6,0.8-6.7,2.4L102.7,0H88.8l4,62.2h8l0.1-3.8
	c2.4,2.1,5,3.2,7.7,3.2c2.6,0,5.1-0.9,7.3-2.7c2.2-1.8,4-4.3,5.2-7.5c1.3-3.1,1.9-6.6,1.9-10.4c0-3.7-0.6-7.2-1.9-10.3
	C119.9,27.5,118.2,25,116,23.2z M112.8,45.3c-0.5,1.6-1.2,2.9-2,3.9c-0.9,1-1.7,1.5-2.7,1.5c-0.9,0-1.8-0.5-2.6-1.5
	c-0.8-1-1.5-2.3-2-3.9c-0.5-1.6-0.8-3.4-0.8-5.2c0-1.8,0.3-3.6,0.8-5.2c0.5-1.6,1.2-3,2-4c0.8-1,1.7-1.5,2.6-1.5
	c0.9,0,1.8,0.5,2.7,1.5c0.9,1,1.5,2.3,2,3.9c0.5,1.6,0.8,3.4,0.8,5.3C113.5,41.9,113.3,43.7,112.8,45.3z"/>
<path class="st0" d="M156.3,54.4c-0.1,0-0.2-1-0.3-2.9c-0.1-1.9-0.2-3.7-0.1-5.4c0.3-5.1,1.2-12,2.8-20.7l8.5-0.1l0.5-8.5l-7.5-0.3
	c0.7-4.2,1.1-7.6,1.2-10.2c0.1-1.3,0.1-2.5,0-3.5l-13.9-0.8c0.6,2.7,0.7,7.3,0.3,13.9l-8.2-0.4l1.9,10.5l5.6-0.2l-0.5,7.1
	c-0.4,7.1-0.4,12.8,0,17.1c0.4,4.3,1.4,7.5,2.8,9.6c1.4,2.1,3.4,3.2,5.9,3.4c0.9,0.1,1.8-0.1,2.8-0.3c1-0.3,2.3-0.7,3.8-1.3
	l-3.4-7.7C157.4,54.1,156.6,54.5,156.3,54.4z"/>
<polygon class="st0" points="200.7,20.7 194.2,20.4 194.3,20.4 170.4,18.6 169.5,32.1 183,30.2 165.6,62.4 198.4,62.3 198.4,49.6 
	181.1,52.7 "/>
<circle class="st1" cx="29.3" cy="33.2" r="13.1"/>
<path class="st2" d="M54.6,33.2c0,14-11.3,25.3-25.3,25.3S4,47.1,4,33.2S15.3,7.9,29.3,7.9c5.2,0,10,1.5,14,4.2
	c3.1,2.1,5.7,4.8,7.7,8C53.2,23.9,54.6,28.4,54.6,33.2z"/>
<circle class="st3" cx="45" cy="13.4" r="7.7"/>
</svg>
