<?xml version="1.0" encoding="utf-8"?>
<!-- Generator: Adobe Illustrator 26.4.0, SVG Export Plug-In . SVG Version: 6.00 Build 0)  -->
<svg version="1.1" id="Layer_1" xmlns="http://www.w3.org/2000/svg" xmlns:xlink="http://www.w3.org/1999/xlink" x="0px" y="0px"
	 viewBox="0 0 117.2 35.8" style="enable-background:new 0 0 117.2 35.8;" xml:space="preserve">
<style type="text/css">
	.st0{fill:#0C5E66;}
	.st1{fill:#03A3B3;}
	.st2{fill:none;stroke:#0C5E66;stroke-width:5;stroke-linecap:square;stroke-linejoin:bevel;stroke-miterlimit:10;}
	.st3{fill:#F38E1F;}
</style>
<g>
	<g>
		<g>
			<path class="st0" d="M51.9,13.3c-0.9-0.6-1.8-0.9-2.7-0.9c-0.8,0-1.6,0.2-2.4,0.6s-1.8,1-2.9,1.9v-3.5l-6.8,1.7l1.6,22.2h5.2
				V21.1c1.7-1.6,3.1-2.4,4.1-2.4c0.5,0,0.9,0.2,1.4,0.7s0.9,1.2,1.5,2.4l3.3-6C53.5,14.7,52.8,13.9,51.9,13.3z"/>
			<polygon class="st0" points="74.7,35.5 79.7,35.2 80.7,14.6 74,14.6 			"/>
			<path class="st0" d="M69.1,13.2c-1.2-1-2.6-1.5-4.1-1.5c-1.4,0-2.6,0.5-3.8,1.4l0.4-13h-7.9L56,35.3h4.5l0.1-2.2
				c1.4,1.2,2.8,1.8,4.4,1.8c1.5,0,2.9-0.5,4.1-1.5s2.3-2.4,3-4.3c0.7-1.8,1.1-3.7,1.1-5.9c0-2.1-0.3-4.1-1.1-5.8
				C71.3,15.6,70.4,14.2,69.1,13.2z M67.3,25.7c-0.3,0.9-0.7,1.6-1.1,2.2c-0.5,0.6-1,0.9-1.5,0.9s-1-0.3-1.5-0.9s-0.9-1.3-1.1-2.2
				c-0.3-0.9-0.5-1.9-0.5-3c0-1,0.2-2,0.5-3c0.3-0.9,0.7-1.7,1.1-2.3c0.5-0.6,1-0.9,1.5-0.9s1,0.3,1.5,0.9s0.9,1.3,1.1,2.2
				c0.3,0.9,0.5,1.9,0.5,3C67.7,23.8,67.6,24.8,67.3,25.7z"/>
			<path class="st0" d="M92,30.9c-0.1,0-0.1-0.6-0.2-1.6c-0.1-1.1-0.1-2.1-0.1-3.1c0.2-2.9,0.7-6.8,1.6-11.7l4.8-0.1l0.3-4.8
				l-4.3-0.2c0.4-2.4,0.6-4.3,0.7-5.8c0.1-0.7,0.1-1.4,0-2L87,1.1c0.3,1.5,0.4,4.1,0.2,7.9l-4.7-0.2l1.1,6l3.2-0.1l-0.3,4
				c-0.2,4-0.2,7.3,0,9.7s0.8,4.3,1.6,5.4c0.8,1.2,1.9,1.8,3.3,1.9c0.5,0.1,1-0.1,1.6-0.2c0.6-0.2,1.3-0.4,2.2-0.7l-1.9-4.4
				C92.6,30.7,92.2,30.9,92,30.9z"/>
			<polygon class="st0" points="117.2,11.7 113.5,11.6 113.5,11.6 100,10.6 99.5,18.2 107.1,17.1 97.3,35.4 115.9,35.4 115.9,28.1 
				106.1,29.9 			"/>
		</g>
	</g>
	<circle class="st1" cx="16.9" cy="18.8" r="7.4"/>
	<path class="st2" d="M31.2,18.8c0,7.9-6.4,14.4-14.4,14.4S2.5,26.7,2.5,18.8S8.9,4.5,16.9,4.5c3,0,5.7,0.9,7.9,2.4
		c1.8,1.2,3.2,2.7,4.4,4.5C30.4,13.6,31.2,16.1,31.2,18.8z"/>
	<circle class="st3" cx="77.9" cy="6.7" r="4.4"/>
</g>
</svg>
