<?xml version="1.0" encoding="utf-8"?>
<!-- Generator: Adobe Illustrator 26.4.0, SVG Export Plug-In . SVG Version: 6.00 Build 0)  -->
<svg version="1.1" id="Layer_1" xmlns="http://www.w3.org/2000/svg" xmlns:xlink="http://www.w3.org/1999/xlink" x="0px" y="0px"
	 viewBox="0 0 159.2 126.9" style="enable-background:new 0 0 159.2 126.9;" xml:space="preserve">
<style type="text/css">
	.st0{fill:#003350;}
</style>
<g>
	<g>
		<path class="st0" d="M157.1,50.7c-2.6-2.6-6.8-4.3-28.5,3.8c-7.9,2.9-18.2,7.3-26.6,11.9c-1.2-2.9-2.2-5.4-2.8-6.9
			C87.3,31.8,82.5,31.8,79.6,31.8c-2.9,0-7.7,0-19.6,27.7c-0.6,1.5-1.7,3.9-2.8,6.9c-8.4-4.6-18.7-8.9-26.6-11.9
			C8.9,46.4,4.7,48.1,2.1,50.7c-2,2-5.4,5.4,5.7,33.5c2.4,6.1,10.9,26.4,18.2,33.7c5.9,5.9,13.8,8.9,21.7,8.9
			c5.5,0,11.1-1.5,15.9-4.4c4.6,2.9,10.1,4.5,16,4.5c5.8,0,11.3-1.6,15.9-4.5c4.9,3,10.4,4.4,15.9,4.4c7.9,0,15.8-3,21.7-8.9
			c7.4-7.4,15.8-27.7,18.2-33.7C162.6,56.2,159.2,52.8,157.1,50.7z M34.3,109.7c-7-7-19.3-36.8-22.1-48.9c9.1,2.2,28.7,9.7,41,16.7
			C50.9,84.3,49,91.4,49,96.3c0,6.6,2.1,12.6,5.6,17.6C47.8,116.6,39.7,115.1,34.3,109.7z M60.7,96.3c0-9.9,12.4-39.7,19-50.3
			c6.5,10.5,19,40.4,19,50.3c0,10.5-8.5,19-19,19C69.2,115.3,60.7,106.8,60.7,96.3z M124.9,109.7c-5.4,5.4-13.5,6.9-20.4,4.2
			c3.5-5,5.6-11.1,5.6-17.6c0-4.9-1.9-12-4.1-18.8c12.3-7,31.9-14.5,41-16.7C144.2,72.9,131.9,102.7,124.9,109.7z"/>
		<path class="st0" d="M79.6,18.5c5.1,0,9.3-4.1,9.3-9.3c0-5.1-4.1-9.3-9.3-9.3c-5.1,0-9.3,4.1-9.3,9.3
			C70.4,14.4,74.5,18.5,79.6,18.5z"/>
		<path class="st0" d="M121.1,45.4c5.1,0,9.3-4.1,9.3-9.3c0-5.1-4.1-9.3-9.3-9.3c-5.1,0-9.3,4.1-9.3,9.3
			C111.9,41.2,116,45.4,121.1,45.4z"/>
		<path class="st0" d="M38.1,45.4c5.1,0,9.3-4.1,9.3-9.3c0-5.1-4.1-9.3-9.3-9.3c-5.1,0-9.3,4.1-9.3,9.3C28.9,41.2,33,45.4,38.1,45.4
			z"/>
	</g>
</g>
</svg>
