<?xml version="1.0" encoding="utf-8"?>
<!-- Generator: Adobe Illustrator 26.4.0, SVG Export Plug-In . SVG Version: 6.00 Build 0)  -->
<svg version="1.1" id="Layer_1" xmlns="http://www.w3.org/2000/svg" xmlns:xlink="http://www.w3.org/1999/xlink" x="0px" y="0px"
	 viewBox="0 0 140.2 130" style="enable-background:new 0 0 140.2 130;" xml:space="preserve">
<style type="text/css">
	.st0{fill:#003350;}
</style>
<g>
	<path class="st0" d="M102.2,57.6c-9.2,0-18.1,3.2-25,9c-1.2,1-1.9,2.4-2,3.9c-0.1,1.5,0.3,3,1.3,4.2c2,2.4,5.7,2.8,8.1,0.7
		c4.8-4.1,11.1-6.3,17.6-6.3c14.5,0,26.4,11,26.4,24.6c0,13.6-11.8,24.6-26.4,24.6s-26.4-11-26.4-24.6c0-19.9-17-36.2-37.9-36.2
		S0,73.9,0,93.8S17,130,37.9,130c9.2,0,18.1-3.2,25-9c2.4-2,2.8-5.7,0.7-8.1c-2-2.4-5.7-2.8-8.1-0.7c-4.8,4.1-11.1,6.3-17.6,6.3
		c-14.5,0-26.4-11-26.4-24.6c0-13.6,11.8-24.6,26.4-24.6s26.4,11,26.4,24.6c0,19.9,17,36.2,37.9,36.2s37.9-16.2,37.9-36.2
		S123.1,57.6,102.2,57.6z"/>
	<path class="st0" d="M70.1,52.3c14.4,0,26.2-11.7,26.2-26.2C96.2,11.7,84.5,0,70.1,0S43.9,11.7,43.9,26.2
		C43.9,40.6,55.7,52.3,70.1,52.3z M55.5,26.2c0-8.1,6.6-14.6,14.6-14.6s14.6,6.6,14.6,14.6s-6.6,14.6-14.6,14.6S55.5,34.2,55.5,26.2
		z"/>
</g>
</svg>
