<?xml version="1.0" encoding="utf-8"?>
<!-- Generator: Adobe Illustrator 26.4.0, SVG Export Plug-In . SVG Version: 6.00 Build 0)  -->
<svg version="1.1" id="Layer_1" xmlns="http://www.w3.org/2000/svg" xmlns:xlink="http://www.w3.org/1999/xlink" x="0px" y="0px"
	 viewBox="0 0 163.2 115.8" style="enable-background:new 0 0 163.2 115.8;" xml:space="preserve">
<style type="text/css">
	.st0{fill:#003350;}
</style>
<g>
	<path class="st0" d="M66.5,61.9C66.5,61.9,66.5,61.9,66.5,61.9c-2.7-2.7-9.1-7.2-33.7-15.3c-13.1-4.3-25.3-7.7-25.4-7.7
		c-2-0.5-4.1,0-5.6,1.5c-1.5,1.5-2,3.6-1.5,5.6c0,0.1,3.4,12.3,7.7,25.4c8.2,24.6,12.7,31.1,15.3,33.7c5.1,5.1,13.6,9,22.2,10.3
		c2,0.3,4,0.4,5.8,0.4c7.7,0,14.3-2.4,18.9-7c5.7-5.7,8.1-14.5,6.6-24.7C75.5,75.4,71.6,67,66.5,61.9z M47.1,103.9
		c-6.1-0.9-12.3-3.6-15.6-7c-3.9-3.9-11.3-24-17.2-44.1c20.1,6,40.2,13.3,44.1,17.2c3.4,3.4,6.1,9.5,7,15.6c0.5,3.6,0.3,6.9-0.4,9.6
		L45,75.4c-2.3-2.3-5.9-2.3-8.2,0c-2.3,2.3-2.3,5.9,0,8.2l19.9,19.9C54,104.2,50.7,104.4,47.1,103.9z"/>
	<path class="st0" d="M161.5,40.3c-1.5-1.5-3.6-2-5.6-1.5c-0.1,0-12.3,3.4-25.4,7.7c-24.6,8.2-31.1,12.7-33.7,15.3
		c-5.1,5.1-9,13.6-10.3,22.2c-1.5,10.2,0.9,19,6.6,24.7c4.6,4.6,11.2,7,18.9,7c1.9,0,3.8-0.1,5.8-0.4c8.6-1.2,17.1-5.2,22.2-10.3
		c2.7-2.7,7.2-9.1,15.3-33.7c4.3-13.1,7.7-25.3,7.7-25.4C163.6,43.9,163,41.8,161.5,40.3z M131.8,96.9c-3.4,3.4-9.5,6.1-15.6,7
		c-3.6,0.5-6.9,0.3-9.6-0.4l19.9-19.9c2.3-2.3,2.3-5.9,0-8.2c-2.3-2.3-5.9-2.3-8.2,0L98.4,95.3c-0.8-2.7-0.9-6-0.4-9.6
		c0.9-6.1,3.6-12.3,7-15.6c3.9-3.9,24-11.3,44.1-17.2C143.1,72.9,135.7,93,131.8,96.9z"/>
	<path class="st0" d="M108.3,26.6C108.3,12,96.3,0,81.6,0C66.9,0,55,12,55,26.6c0,14.7,12,26.6,26.6,26.6
		C96.3,53.3,108.3,41.3,108.3,26.6z M81.6,41.7c-8.3,0-15.1-6.8-15.1-15.1s6.8-15.1,15.1-15.1c8.3,0,15.1,6.8,15.1,15.1
		C96.7,35,89.9,41.7,81.6,41.7z"/>
</g>
</svg>
