<?xml version="1.0" encoding="utf-8"?>
<!-- Generator: Adobe Illustrator 26.5.0, SVG Export Plug-In . SVG Version: 6.00 Build 0)  -->
<svg version="1.1" id="Layer_1" xmlns="http://www.w3.org/2000/svg" xmlns:xlink="http://www.w3.org/1999/xlink" x="0px" y="0px"
	 viewBox="0 0 186 186" style="enable-background:new 0 0 186 186;" xml:space="preserve">
<style type="text/css">
	.st0{fill:#F7FFFE;stroke:#FFFFFF;stroke-miterlimit:10;}
	.st1{fill:none;stroke:#707171;}
	.st2{fill:none;}
	.st3{fill:none;stroke:#000000;stroke-width:2;}
	.st4{fill:none;stroke:#000000;}
	.st5{enable-background:new    ;}
	.st6{fill:#FFFFFF;}
</style>
<g id="Ellipse_5" transform="translate(9431 1667)">
	<circle class="st0" cx="-9338" cy="-1574" r="92.1"/>
	<circle class="st1" cx="-9338" cy="-1574" r="91.6"/>
</g>
<g id="Group_1067" transform="translate(-9899 -1667)">
	<g id="Group_1058">
		<g id="Group_1055" transform="translate(1)">
			<g id="Rectangle_376" transform="translate(9957 1738)">
				<path class="st2" d="M4.5,0h59c2.8,0,5,2.2,5,5v11c0,2.8-2.2,5-5,5h-59c-2.8,0-5-2.2-5-5V5C-0.5,2.2,1.8,0,4.5,0z"/>
				<path class="st3" d="M4.5,1h59c2.2,0,4,1.8,4,4v11c0,2.2-1.8,4-4,4h-59c-2.2,0-4-1.8-4-4V5C0.5,2.8,2.3,1,4.5,1z"/>
			</g>
			<g id="Rectangle_377" transform="translate(9970 1763)">
				<path class="st2" d="M4.5,0h33c2.8,0,5,2.2,5,5v11c0,2.8-2.2,5-5,5h-33c-2.8,0-5-2.2-5-5V5C-0.5,2.2,1.8,0,4.5,0z"/>
				<path class="st3" d="M4.5,1h33c2.2,0,4,1.8,4,4v11c0,2.2-1.8,4-4,4h-33c-2.2,0-4-1.8-4-4V5C0.5,2.8,2.3,1,4.5,1z"/>
			</g>
			<path id="Path_940" class="st4" d="M9991,1727v68"/>
		</g>
	</g>
	<g id="Group_1063" transform="translate(-953)">
		<circle id="Ellipse_9_00000098220148199943882690000014140520987177405574_" cx="11015.5" cy="1697" r="22"/>
		<g class="st5">
			<path class="st6" d="M11014.8,1696.8c0,1-0.2,2-0.6,2.8c-0.4,0.8-0.9,1.4-1.6,1.9c-0.7,0.5-1.5,0.7-2.3,0.7s-1.7-0.2-2.3-0.7
				c-0.7-0.5-1.2-1.1-1.6-1.9c-0.4-0.8-0.6-1.7-0.6-2.8c0-1,0.2-2,0.6-2.8c0.4-0.8,0.9-1.4,1.6-1.9c0.7-0.5,1.5-0.7,2.3-0.7
				s1.7,0.2,2.3,0.7c0.7,0.5,1.2,1.1,1.6,1.9S11014.8,1695.8,11014.8,1696.8z M11013.2,1696.8c0-0.8-0.1-1.5-0.4-2
				c-0.3-0.6-0.6-1-1-1.4s-1-0.5-1.5-0.5c-0.6,0-1.1,0.2-1.5,0.5s-0.8,0.8-1,1.4c-0.3,0.6-0.4,1.3-0.4,2c0,0.8,0.1,1.5,0.4,2
				s0.6,1,1,1.4s1,0.5,1.5,0.5c0.6,0,1.1-0.2,1.5-0.5s0.8-0.8,1-1.4S11013.2,1697.6,11013.2,1696.8z"/>
			<path class="st6" d="M11023.1,1697.6c0.5,0.1,1,0.3,1.3,0.6c0.4,0.3,0.7,0.7,0.9,1.1s0.3,1,0.3,1.5c0,0.7-0.2,1.4-0.5,2
				c-0.4,0.6-0.9,1-1.5,1.3s-1.4,0.5-2.3,0.5c-0.9,0-1.7-0.2-2.4-0.5s-1.2-0.8-1.6-1.4l1.1-1.1c0.3,0.5,0.7,0.9,1.1,1.2
				c0.5,0.3,1.1,0.4,1.8,0.4c0.8,0,1.5-0.2,2-0.6s0.7-1,0.7-1.7c0-0.8-0.3-1.4-0.8-1.9s-1.3-0.7-2.2-0.7h-0.5v-1.3h0.5
				c0.9,0,1.5-0.2,2-0.6s0.7-1,0.7-1.6c0-0.4-0.1-0.8-0.3-1.1s-0.5-0.5-0.8-0.6s-0.8-0.2-1.2-0.2c-0.7,0-1.2,0.1-1.7,0.4
				s-0.9,0.7-1.2,1.2l-1-1c0.2-0.4,0.5-0.8,0.9-1.1c0.4-0.3,0.9-0.5,1.4-0.7s1.1-0.3,1.7-0.3c0.8,0,1.4,0.1,2,0.4s1,0.6,1.4,1.1
				s0.5,1.1,0.5,1.7c0,0.5-0.1,0.9-0.3,1.3s-0.4,0.8-0.8,1.1C11024,1697.4,11023.6,1697.5,11023.1,1697.6z"/>
		</g>
	</g>
</g>
</svg>
