<?xml version="1.0" encoding="utf-8"?>
<!-- Generator: Adobe Illustrator 26.5.0, SVG Export Plug-In . SVG Version: 6.00 Build 0)  -->
<svg version="1.1" id="Layer_1" xmlns="http://www.w3.org/2000/svg" xmlns:xlink="http://www.w3.org/1999/xlink" x="0px" y="0px"
	 viewBox="0 0 186 186" style="enable-background:new 0 0 186 186;" xml:space="preserve">
<style type="text/css">
	.st0{fill:#F7FFFE;stroke:#FFFFFF;stroke-miterlimit:10;}
	.st1{fill:none;stroke:#707171;}
	.st2{fill:none;}
	.st3{fill:none;stroke:#000000;stroke-width:2;}
	.st4{enable-background:new    ;}
	.st5{fill:#FFFFFF;}
</style>
<g id="Ellipse_5" transform="translate(9431 1667)">
	
		<ellipse transform="matrix(0.7071 -0.7071 0.7071 0.7071 -1622.0507 -7063.9771)" class="st0" cx="-9338" cy="-1574" rx="92.2" ry="92.2"/>
	<circle class="st1" cx="-9338" cy="-1574" r="92.5"/>
</g>
<g id="Group_1066" transform="translate(-9683 -1667)">
	<g id="Group_1059">
		<g id="Group_1054" transform="translate(85)">
			<g id="Ellipse_1" transform="translate(9671 1726)">
				<circle class="st2" cx="21" cy="21" r="21"/>
				<circle class="st3" cx="21" cy="21" r="20"/>
			</g>
			<g id="Ellipse_2" transform="translate(9654 1754)">
				<circle class="st2" cx="21" cy="21" r="21"/>
				<circle class="st3" cx="21" cy="21" r="20"/>
			</g>
			<g id="Ellipse_3" transform="translate(9686 1754)">
				<circle class="st2" cx="21" cy="21" r="21"/>
				<circle class="st3" cx="21" cy="21" r="20"/>
			</g>
		</g>
	</g>
	<g id="Group_1062" transform="translate(-1169)">
		<circle id="Ellipse_9_00000161615489646953068710000000777493954425165192_" cx="11016" cy="1697" r="22"/>
		<g class="st4">
			<path class="st5" d="M11015.3,1696.8c0,1-0.2,2-0.6,2.8c-0.4,0.8-0.9,1.4-1.6,1.9s-1.5,0.7-2.3,0.7s-1.7-0.2-2.3-0.7
				c-0.7-0.5-1.2-1.1-1.6-1.9c-0.4-0.8-0.6-1.7-0.6-2.8c0-1,0.2-2,0.6-2.8c0.4-0.8,0.9-1.4,1.6-1.9c0.7-0.5,1.5-0.7,2.3-0.7
				s1.7,0.2,2.3,0.7s1.2,1.1,1.6,1.9S11015.3,1695.8,11015.3,1696.8z M11013.7,1696.8c0-0.8-0.1-1.5-0.4-2c-0.3-0.6-0.6-1-1-1.4
				c-0.4-0.3-1-0.5-1.5-0.5c-0.6,0-1.1,0.2-1.5,0.5s-0.8,0.8-1,1.4c-0.3,0.6-0.4,1.3-0.4,2c0,0.8,0.1,1.5,0.4,2s0.6,1,1,1.4
				c0.4,0.3,1,0.5,1.5,0.5c0.6,0,1.1-0.2,1.5-0.5s0.8-0.8,1-1.4S11013.7,1697.6,11013.7,1696.8z"/>
			<path class="st5" d="M11017.9,1702c0-0.5,0-0.9,0.1-1.4c0.1-0.4,0.2-0.8,0.4-1.2s0.5-0.8,0.9-1.1c0.4-0.4,0.9-0.7,1.5-1
				c0.4-0.2,0.7-0.4,1.1-0.6c0.4-0.2,0.7-0.4,1-0.6s0.6-0.4,0.8-0.7c0.2-0.2,0.3-0.5,0.3-0.9c0-0.3-0.1-0.6-0.2-0.8
				c-0.2-0.3-0.4-0.5-0.7-0.6c-0.3-0.2-0.7-0.2-1.2-0.2c-0.4,0-0.7,0-1,0.1s-0.6,0.2-0.8,0.4c-0.2,0.2-0.4,0.3-0.6,0.5
				c-0.2,0.2-0.3,0.3-0.4,0.4l-1-1.1c0.1-0.1,0.3-0.3,0.5-0.4c0.2-0.2,0.5-0.4,0.9-0.6c0.3-0.2,0.8-0.4,1.2-0.5s1-0.2,1.5-0.2
				c0.7,0,1.4,0.1,1.9,0.4s0.9,0.6,1.2,1.1s0.4,0.9,0.4,1.5c0,0.5-0.1,0.9-0.3,1.2c-0.2,0.4-0.5,0.7-0.8,0.9c-0.3,0.3-0.6,0.5-1,0.7
				s-0.6,0.3-0.9,0.5c-0.5,0.3-1,0.5-1.4,0.7s-0.7,0.4-0.9,0.6s-0.4,0.4-0.6,0.7c-0.2,0.2-0.3,0.5-0.3,0.8h6.4v1.4L11017.9,1702
				L11017.9,1702z"/>
		</g>
	</g>
</g>
</svg>
