<?xml version="1.0" encoding="utf-8"?>
<!-- Generator: Adobe Illustrator 26.5.0, SVG Export Plug-In . SVG Version: 6.00 Build 0)  -->
<svg version="1.1" id="Layer_1" xmlns="http://www.w3.org/2000/svg" xmlns:xlink="http://www.w3.org/1999/xlink" x="0px" y="0px"
	 viewBox="0 0 186 186" style="enable-background:new 0 0 186 186;" xml:space="preserve">
<style type="text/css">
	.st0{fill:#F7FFFE;stroke:#FFFFFF;stroke-miterlimit:10;}
	.st1{fill:none;stroke:#707171;}
	.st2{fill:none;stroke:#000000;stroke-width:2;}
	.st3{fill:none;}
	.st4{enable-background:new    ;}
	.st5{fill:#FFFFFF;}
</style>
<g id="Ellipse_5" transform="translate(9431 1667)">
	<circle class="st0" cx="-9338" cy="-1574" r="92"/>
	<circle class="st1" cx="-9338" cy="-1574" r="91.5"/>
</g>
<g id="Group_1068" transform="translate(-10177 -1667)">
	<g id="Group_1057">
		<g id="Group_1056" transform="translate(-21)">
			<path id="Path_941" class="st2" d="M10284.5,1752.6l7.1-14.9l6.1,14.9l15.4,1.4l-11.3,10.1l2.6,15l-12.9-6.4l-13.9,8l3.4-16.6
				l-11.7-10.1L10284.5,1752.6z"/>
			<g id="Ellipse_4" transform="translate(10256 1725)">
				<circle class="st3" cx="35.5" cy="35.5" r="35.5"/>
				<circle class="st2" cx="35.5" cy="35.5" r="34.5"/>
			</g>
		</g>
	</g>
	<g id="Group_1064" transform="translate(-675)">
		<circle id="Ellipse_9_00000034089136173581510840000011215576624776547501_" cx="11016" cy="1697" r="22"/>
		<g class="st4">
			<path class="st5" d="M11015.1,1696.8c0,1-0.2,2-0.6,2.8c-0.4,0.8-0.9,1.4-1.6,1.9c-0.7,0.5-1.5,0.7-2.3,0.7s-1.7-0.2-2.3-0.7
				s-1.2-1.1-1.6-1.9c-0.4-0.8-0.6-1.7-0.6-2.8c0-1,0.2-2,0.6-2.8c0.4-0.8,0.9-1.4,1.6-1.9s1.5-0.7,2.3-0.7s1.7,0.2,2.3,0.7
				c0.7,0.5,1.2,1.1,1.6,1.9C11014.9,1694.8,11015.1,1695.8,11015.1,1696.8z M11013.5,1696.8c0-0.8-0.1-1.5-0.4-2
				c-0.3-0.6-0.6-1-1-1.4c-0.4-0.3-1-0.5-1.5-0.5c-0.6,0-1.1,0.2-1.5,0.5s-0.8,0.8-1,1.4c-0.3,0.6-0.4,1.3-0.4,2
				c0,0.8,0.1,1.5,0.4,2s0.6,1,1,1.4c0.4,0.3,1,0.5,1.5,0.5c0.6,0,1.1-0.2,1.5-0.5s0.8-0.8,1-1.4S11013.5,1697.6,11013.5,1696.8z"/>
			<path class="st5" d="M11023.2,1704.3v-3h-5.8v-1.4l6.3-8.1h1.1v8.1h1.6v1.4h-1.6v3H11023.2z M11019,1699.8h4.3v-5.6L11019,1699.8
				z"/>
		</g>
	</g>
</g>
</svg>
