<?xml version="1.0" encoding="utf-8"?>
<!-- Generator: Adobe Illustrator 26.5.0, SVG Export Plug-In . SVG Version: 6.00 Build 0)  -->
<svg version="1.1" id="Layer_1" xmlns="http://www.w3.org/2000/svg" xmlns:xlink="http://www.w3.org/1999/xlink" x="0px" y="0px"
	 viewBox="0 0 186 186" style="enable-background:new 0 0 186 186;" xml:space="preserve">
<style type="text/css">
	.st0{fill:#F7FFFE;stroke:#FFFFFF;stroke-miterlimit:10;}
	.st1{fill:none;stroke:#707171;}
	.st2{fill:none;stroke:#000000;stroke-width:2;}
	.st3{fill:none;stroke:#000000;stroke-width:2;stroke-dasharray:8,3;}
	.st4{enable-background:new    ;}
	.st5{fill:#FFFFFF;}
</style>
<g id="Group_1065" transform="translate(-9431 -1667)">
	<g id="Group_1060">
		<g id="Ellipse_5" transform="translate(9431 1667)">
			<circle class="st0" cx="93" cy="93" r="93"/>
			<circle class="st1" cx="93" cy="93" r="92.5"/>
		</g>
		<g id="Group_1053" transform="translate(-0.833)">
			<path id="Path_942" class="st2" d="M9512.2,1744.8h-23.3v50h50V1774"/>
			<path id="Path_943" class="st2" d="M9509.3,1741v36.9h32.3"/>
			<path id="Path_944" class="st3" d="M9509.3,1738.6v-11.1h50.7v50h-14.6"/>
			<path id="Path_945" class="st3" d="M9517.3,1744.8c0.6-0.1,20.6,0,20.6,0v24.5"/>
		</g>
	</g>
	<g id="Group_1061" transform="translate(-1427)">
		<circle id="Ellipse_9" cx="11016" cy="1697" r="22"/>
		<g class="st4">
			<path class="st5" d="M11016.1,1696.8c0,1-0.2,2-0.6,2.8c-0.4,0.8-0.9,1.4-1.6,1.9c-0.7,0.5-1.5,0.7-2.3,0.7s-1.7-0.2-2.3-0.7
				c-0.7-0.5-1.2-1.1-1.6-1.9c-0.4-0.8-0.6-1.7-0.6-2.8c0-1,0.2-2,0.6-2.8c0.4-0.8,0.9-1.4,1.6-1.9c0.7-0.5,1.5-0.7,2.3-0.7
				s1.7,0.2,2.3,0.7c0.7,0.5,1.2,1.1,1.6,1.9C11015.9,1694.8,11016.1,1695.8,11016.1,1696.8z M11014.5,1696.8c0-0.8-0.1-1.5-0.4-2
				c-0.3-0.6-0.6-1-1-1.4s-1-0.5-1.5-0.5c-0.6,0-1.1,0.2-1.5,0.5s-0.8,0.8-1,1.4c-0.3,0.6-0.4,1.3-0.4,2c0,0.8,0.1,1.5,0.4,2
				s0.6,1,1,1.4s1,0.5,1.5,0.5c0.6,0,1.1-0.2,1.5-0.5s0.8-0.8,1-1.4S11014.5,1697.6,11014.5,1696.8z"/>
			<path class="st5" d="M11025.6,1700.6v1.4h-6.5v-1.4h2.6v-7c-0.1,0.1-0.3,0.3-0.5,0.5s-0.5,0.3-0.8,0.5s-0.6,0.3-0.9,0.4
				c-0.3,0.1-0.6,0.1-0.8,0.1v-1.5c0.3,0,0.6-0.1,0.9-0.2c0.3-0.2,0.6-0.3,0.9-0.5s0.6-0.4,0.8-0.6s0.3-0.3,0.4-0.4h1.6v8.8h2.3
				V1700.6z"/>
		</g>
	</g>
</g>
</svg>
