<?xml version="1.0" encoding="utf-8"?>
<!-- Generator: Adobe Illustrator 26.5.0, SVG Export Plug-In . SVG Version: 6.00 Build 0)  -->
<svg version="1.1" xmlns="http://www.w3.org/2000/svg" xmlns:xlink="http://www.w3.org/1999/xlink" x="0px" y="0px"
	 viewBox="0 0 43.4 33.2" style="enable-background:new 0 0 43.4 33.2;" xml:space="preserve">
<style type="text/css">
	.st0{fill:none;}
	.st1{clip-path:url(#SVGID_00000106856250235702551540000003081672898204533407_);}
	.st2{fill:#4B4D4F;}
</style>
<g id="Layer_1">
	<rect class="st0" width="43.4" height="33.2"/>
</g>
<g id="Layer_2">
	<g id="Group_38" transform="translate(0 0)">
		<g>
			<defs>
				<rect id="SVGID_1_" x="8.2" y="3.1" width="26.9" height="26.9"/>
			</defs>
			<clipPath id="SVGID_00000075141845723385245960000008010725999452390842_">
				<use xlink:href="#SVGID_1_"  style="overflow:visible;"/>
			</clipPath>
			<g id="Group_37" style="clip-path:url(#SVGID_00000075141845723385245960000008010725999452390842_);">
				<path id="Path_9" class="st2" d="M10,12.2c-0.8-0.2-1.6,0.3-1.8,1.1c-0.1,0.5,0,1,0.4,1.4c0,0,0,0,0,0h0l2.8,2.8l4.4-4.4
					L10,12.2C10,12.2,10,12.2,10,12.2"/>
				<path id="Path_10" class="st2" d="M25.9,27.9C25.9,27.9,25.9,27.9,25.9,27.9l-0.8-5.5l-4.3,4.3l2.7,2.7c0,0,0,0,0,0
					c0,0,0.1,0.1,0.1,0.1c0.6,0.6,1.5,0.6,2.1,0C26,29.1,26.1,28.5,25.9,27.9"/>
				<path id="Path_11" class="st2" d="M21,18.4l-1.2-1.2c-0.4-0.4-1.1-0.4-1.5,0c0,0,0,0,0,0l-2.2,2.2l-0.3,0.3
					c-0.4,0.4-0.4,1.1,0,1.5c0,0,0,0,0,0l1.2,1.2c0.4,0.4,1.1,0.4,1.5,0c0,0,0,0,0,0l2.6-2.6C21.4,19.5,21.4,18.8,21,18.4"/>
				<path id="Path_12" class="st2" d="M31.9,14.5L31.9,14.5L35,5.1c0-0.1,0.1-0.2,0.1-0.3l0,0C35.3,4,34.8,3.3,34,3.1
					c-0.2,0-0.4,0-0.6,0l0,0l0,0c-0.1,0-0.1,0-0.2,0.1l-9.2,3c-0.3,0.1-0.6,0.2-0.9,0.4l-6.5,6.5l-4.7,4.7l-0.8,0.8
					c-0.7,0.7-0.7,1.8,0,2.5c0,0,0,0,0,0l1.1,1.1l-0.3,0.5l3.4,3.4l0.5-0.3l1.1,1.1c0.7,0.7,1.8,0.7,2.5,0c0,0,0,0,0,0l0.8-0.8
					l4.7-4.7l6.5-6.5C31.6,14.9,31.8,14.7,31.9,14.5 M18.8,22.8c-0.6,0.6-1.6,0.6-2.1,0c0,0,0,0,0,0l-1.2-1.2
					c-0.6-0.6-0.6-1.6,0-2.1l0.3-0.3l2.2-2.2c0.6-0.6,1.6-0.6,2.1,0l1.2,1.2c0.6,0.6,0.6,1.6,0,2.1L18.8,22.8z M23.4,14.8
					c-1.1-1.1-1.1-2.8,0-3.9c1.1-1.1,2.8-1.1,3.9,0s1.1,2.8,0,3.9c0,0,0,0,0,0C26.1,15.9,24.4,15.9,23.4,14.8"/>
			</g>
		</g>
	</g>
</g>
</svg>
