<?xml version="1.0" encoding="utf-8"?>
<!-- Generator: Adobe Illustrator 26.5.0, SVG Export Plug-In . SVG Version: 6.00 Build 0)  -->
<svg version="1.1" xmlns="http://www.w3.org/2000/svg" xmlns:xlink="http://www.w3.org/1999/xlink" x="0px" y="0px"
	 viewBox="0 0 43.4 33.2" style="enable-background:new 0 0 43.4 33.2;" xml:space="preserve">
<style type="text/css">
	.st0{fill:none;}
	.st1{clip-path:url(#SVGID_00000022530848733340845800000013508827481822736004_);}
	.st2{fill:#4B4D4F;}
</style>
<g id="Layer_1">
	<rect class="st0" width="43.4" height="33.2"/>
</g>
<g id="Layer_2">
	<g id="Group_34" transform="translate(0 0)">
		<g>
			<defs>
				<rect id="SVGID_1_" x="4.2" y="3.1" width="35.3" height="26.9"/>
			</defs>
			<clipPath id="SVGID_00000157998946685899408890000012278745788407127430_">
				<use xlink:href="#SVGID_1_"  style="overflow:visible;"/>
			</clipPath>
			<g id="Group_33" style="clip-path:url(#SVGID_00000157998946685899408890000012278745788407127430_);">
				<path id="Path_5" class="st2" d="M6.1,30.1h31.6c1,0,1.8-0.8,1.8-1.8c0-0.7-0.4-1.4-1.1-1.7l-2.7-2.4c1.1-0.1,2-1.1,2-2.2V5.3
					c0-1.2-1-2.2-2.2-2.2c0,0,0,0,0,0H8.2C7,3.1,6,4.1,6,5.3c0,0,0,0,0,0V22c0,1.2,0.9,2.1,2,2.2l-2.8,2.4c-0.3,0.1-0.6,0.4-0.8,0.7
					l0,0h0c-0.6,0.9-0.3,2,0.6,2.6C5.4,30,5.7,30.1,6.1,30.1 M6.8,28.8c-0.2,0-0.4-0.2-0.4-0.4c0-0.2,0.2-0.4,0.4-0.4
					c0.2,0,0.4,0.2,0.4,0.4C7.1,28.7,7,28.8,6.8,28.8C6.8,28.8,6.8,28.8,6.8,28.8 M8.2,28.8c-0.2,0-0.4-0.2-0.4-0.4
					c0-0.2,0.2-0.4,0.4-0.4c0.2,0,0.4,0.2,0.4,0.4C8.6,28.7,8.4,28.8,8.2,28.8C8.2,28.8,8.2,28.8,8.2,28.8 M9.8,28.8
					c-0.2,0-0.4-0.2-0.4-0.4c0-0.2,0.2-0.4,0.4-0.4c0.2,0,0.4,0.2,0.4,0.4C10.1,28.7,10,28.8,9.8,28.8C9.8,28.8,9.8,28.8,9.8,28.8
					 M23.1,28.8h-3.1c-0.2,0-0.4-0.2-0.3-0.4c0-0.2,0.2-0.3,0.3-0.3h3.1c0.2,0,0.4,0.1,0.4,0.3C23.5,28.6,23.4,28.8,23.1,28.8
					C23.2,28.8,23.2,28.8,23.1,28.8 M21.8,4.4c0.2,0,0.4,0.2,0.4,0.4c0,0.2-0.2,0.4-0.4,0.4c-0.2,0-0.4-0.2-0.4-0.4c0,0,0,0,0,0
					C21.4,4.6,21.6,4.4,21.8,4.4 M8,6.4h27.6v14.5H8V6.4z M8.7,24.5h0.7l-2,1.7h28.9l-2-1.7h0.7l2.3,2H6.3L8.7,24.5z"/>
			</g>
		</g>
	</g>
</g>
</svg>
