<?xml version="1.0" encoding="utf-8"?>
<!-- Generator: Adobe Illustrator 26.5.0, SVG Export Plug-In . SVG Version: 6.00 Build 0)  -->
<svg version="1.1" xmlns="http://www.w3.org/2000/svg" xmlns:xlink="http://www.w3.org/1999/xlink" x="0px" y="0px"
	 viewBox="0 0 43.4 33.2" style="enable-background:new 0 0 43.4 33.2;" xml:space="preserve">
<style type="text/css">
	.st0{fill:none;}
	.st1{clip-path:url(#SVGID_00000150099405633916776450000000543463204522302102_);}
	.st2{fill:#4B4D4F;}
</style>
<g id="Layer_1">
	<rect class="st0" width="43.4" height="33.2"/>
</g>
<g id="Layer_2">
	<g>
		<defs>
			<rect id="SVGID_1_" x="4.9" y="5.1" width="33.5" height="22.9"/>
		</defs>
		<clipPath id="SVGID_00000183250059915992011790000001555383577505606577_">
			<use xlink:href="#SVGID_1_"  style="overflow:visible;"/>
		</clipPath>
		<g id="Group_35" style="clip-path:url(#SVGID_00000183250059915992011790000001555383577505606577_);">
			<path id="Path_6" class="st2" d="M9.4,5.4C8.7,5.4,8.1,6,8.1,6.7l0,0v0.5h6V6.7c0-0.7-0.6-1.3-1.3-1.3c0,0,0,0,0,0L9.4,5.4z"/>
			<path id="Path_7" class="st2" d="M18.1,14.6c-2,2-2,5.2,0,7.2s5.2,2,7.2,0s2-5.2,0-7.2c-1-1-2.2-1.5-3.6-1.5
				C20.4,13.1,19.1,13.6,18.1,14.6"/>
			<path id="Path_8" class="st2" d="M28,8.3c-0.4-1.8-2-3.1-3.9-3.1h-4.8c-1.9,0-3.5,1.3-3.9,3.1H7.7c-1.5,0-2.7,1.2-2.7,2.7
				c0,0,0,0,0,0v14.3c0,1.5,1.2,2.7,2.7,2.7c0,0,0,0,0,0h28.1c1.5,0,2.7-1.2,2.7-2.7V11c0-1.5-1.2-2.7-2.7-2.7H28z M21.7,24.3
				c-3.4,0-6.2-2.8-6.2-6.2s2.8-6.2,6.2-6.2s6.2,2.8,6.2,6.2c0,0,0,0,0,0C27.9,21.6,25.1,24.3,21.7,24.3
				C21.7,24.3,21.7,24.3,21.7,24.3 M34.4,11.1h-2.9c-0.3,0-0.5-0.3-0.5-0.5c0-0.3,0.2-0.5,0.5-0.5h2.9c0.3,0,0.5,0.3,0.5,0.5
				C34.9,10.9,34.7,11.1,34.4,11.1"/>
		</g>
	</g>
</g>
</svg>
