<?xml version="1.0" encoding="utf-8"?>
<!-- Generator: Adobe Illustrator 26.3.1, SVG Export Plug-In . SVG Version: 6.00 Build 0)  -->
<svg version="1.1" id="Layer_1" xmlns="http://www.w3.org/2000/svg" xmlns:xlink="http://www.w3.org/1999/xlink" x="0px" y="0px"
	 viewBox="0 0 14.1 14.1" style="enable-background:new 0 0 14.1 14.1;" xml:space="preserve">
<style type="text/css">
	.st0{fill:#0C5E66;}
</style>
<path class="st0" d="M7,1.3c1.9,0,2.1,0,2.8,0c0.4,0,0.9,0.1,1.3,0.2C11.5,1.6,11.8,1.8,12,2s0.4,0.5,0.5,0.8
	c0.2,0.4,0.2,0.9,0.2,1.3c0,0.7,0,1,0,2.9s0,2.1,0,2.8c0,0.5-0.1,0.9-0.3,1.3c-0.1,0.3-0.3,0.6-0.5,0.8s-0.5,0.4-0.8,0.5
	c-0.4,0.2-0.9,0.2-1.3,0.2c-0.7,0-1,0-2.8,0s-2.1,0-2.8,0c-0.4,0-0.9-0.1-1.3-0.2c-0.3,0-0.6-0.2-0.9-0.4c-0.2-0.2-0.4-0.5-0.5-0.8
	c-0.2-0.4-0.2-0.9-0.2-1.3c0-0.7,0-1,0-2.8s0-2.1,0-2.9c0-0.4,0.1-0.9,0.2-1.3C1.6,2.6,1.8,2.3,2,2.1s0.5-0.4,0.8-0.5
	c0.4-0.2,0.9-0.2,1.3-0.2C4.9,1.3,5.2,1.3,7,1.3 M7,0C5.1,0,4.9,0,4.1,0C3.6,0.1,3,0.2,2.4,0.4C2,0.5,1.5,0.8,1.2,1.2
	C0.8,1.5,0.5,2,0.4,2.4C0.2,3,0.1,3.5,0,4.1c0,0.8,0,1,0,2.9s0,2.2,0,2.9c0,0.6,0.1,1.2,0.3,1.7s0.5,0.9,0.8,1.2
	c0.3,0.4,0.8,0.7,1.2,0.9C3,14,3.6,14.1,4.1,14.1c0.8,0,1,0,2.9,0s2.2,0,2.9,0c0.6,0,1.2-0.1,1.7-0.3c0.9-0.4,1.7-1.1,2-2
	c0.2-0.5,0.3-1.1,0.3-1.7c0-0.8,0-1,0-2.9s0-2.1,0-2.9c0-0.6-0.1-1.2-0.3-1.7s-0.5-0.9-0.8-1.2C12.5,1,12,0.8,11.6,0.6
	c-0.5-0.2-1.1-0.3-1.7-0.3C9.2,0.1,8.9,0.1,7,0L7,0z"/>
<path class="st0" d="M7,3.4C5,3.4,3.4,5,3.4,7S5,10.6,7,10.6S10.6,9,10.6,7l0,0C10.6,5,9,3.4,7,3.4z M7,9.4c-1.3,0-2.4-1-2.4-2.3
	s1-2.4,2.3-2.4s2.4,1,2.4,2.3l0,0C9.4,8.4,8.3,9.4,7,9.4L7,9.4z"/>
<circle class="st0" cx="10.8" cy="3.3" r="0.8"/>
</svg>
