<?xml version="1.0" encoding="utf-8"?>
<!-- Generator: Adobe Illustrator 26.3.1, SVG Export Plug-In . SVG Version: 6.00 Build 0)  -->
<svg version="1.1" id="Layer_1" xmlns="http://www.w3.org/2000/svg" xmlns:xlink="http://www.w3.org/1999/xlink" x="0px" y="0px"
	 viewBox="0 0 26.4 26.4" style="enable-background:new 0 0 26.4 26.4;" xml:space="preserve">
<style type="text/css">
	.st0{fill:#FFB000;}
	.st1{fill:#FFFFFF;}
</style>
<ellipse id="XMLID_00000038377309306949720700000012871911999350952870_" transform="matrix(0.8544 -0.5196 0.5196 0.8544 -4.9377 8.7821)" class="st0" cx="13.2" cy="13.2" rx="13.2" ry="13.2"/>
<path id="XMLID_00000077287393188727210010000012268456045435284364_" class="st1" d="M11.9,9.8c0,1.2,0,1.5,0,1.5l-1.2,0l0,1.9
	l1.2,0l0,5.6l2.2,0l0-5.6l1.6,0l0.2-1.9l-1.7,0c0,0,0-0.7,0-1.1c0-0.4,0.1-0.6,0.5-0.6c0.3,0,1.2,0,1.2,0l0-1.9c0,0-1.3,0-1.5,0
	C12.6,7.7,11.9,8.4,11.9,9.8z"/>
</svg>
