<?xml version="1.0" encoding="utf-8"?>
<!-- Generator: Adobe Illustrator 26.3.1, SVG Export Plug-In . SVG Version: 6.00 Build 0)  -->
<svg version="1.1" id="Layer_1" xmlns="http://www.w3.org/2000/svg" xmlns:xlink="http://www.w3.org/1999/xlink" x="0px" y="0px"
	 viewBox="0 0 14.5 11.8" style="enable-background:new 0 0 14.5 11.8;" xml:space="preserve">
<style type="text/css">
	.st0{fill:#0C5E66;}
</style>
<path class="st0" d="M4.5,11.8c4.6,0,8.4-3.7,8.4-8.3V3.4c0-0.1,0-0.3,0-0.4c0.6-0.4,1.1-0.9,1.5-1.5c-0.5,0.2-1.1,0.4-1.7,0.5
	c0.6-0.4,1.1-1,1.3-1.6c-0.6,0.3-1.2,0.6-1.9,0.7c-1.2-1.2-3.1-1.2-4.2,0C7.4,1.4,7.1,2.2,7,2.9c0,0.2,0,0.5,0.1,0.7
	C4.7,3.5,2.5,2.4,1,0.6C0.7,1,0.6,1.6,0.6,2.1c0,1,0.5,1.9,1.3,2.4C1.4,4.5,1,4.4,0.6,4.1l0,0c0,1.4,1,2.6,2.4,2.9
	C2.7,7.1,2.4,7.1,2.2,7.1S1.8,7.1,1.6,7C2,8.3,3.1,9.2,4.4,9.2C3.3,10,2,10.5,0.7,10.5c-0.2,0-0.5,0-0.7,0
	C1.3,11.3,2.9,11.8,4.5,11.8"/>
</svg>
