<?xml version="1.0" encoding="utf-8"?>
<!-- Generator: Adobe Illustrator 26.5.0, SVG Export Plug-In . SVG Version: 6.00 Build 0)  -->
<svg version="1.1" id="Layer_1" xmlns="http://www.w3.org/2000/svg" xmlns:xlink="http://www.w3.org/1999/xlink" x="0px" y="0px"
	 viewBox="0 0 27 28" style="enable-background:new 0 0 27 28;" xml:space="preserve">
<style type="text/css">
	.st0{fill:#5F57A4;}
	.st1{fill:#FFFFFF;}
</style>
<g id="Group_1082" transform="translate(-269 -4774)">
	<ellipse id="Ellipse_9" class="st0" cx="282.5" cy="4788" rx="13.5" ry="14"/>
	<g id="Group_130" transform="translate(273.86 4778.637)">
		<path id="Path_35" class="st1" d="M8.8,1.6c2.3,0,2.6,0,3.5,0.1c0.6,0,1.1,0.1,1.6,0.3c0.4,0.1,0.7,0.4,1,0.7
			c0.3,0.3,0.5,0.6,0.7,1c0.2,0.5,0.3,1.1,0.3,1.6c0,0.9,0.1,1.2,0.1,3.5s0,2.6-0.1,3.5c0,0.6-0.1,1.1-0.3,1.6
			c-0.3,0.8-0.9,1.4-1.7,1.7c-0.5,0.2-1.1,0.3-1.6,0.3c-0.9,0-1.2,0.1-3.5,0.1s-2.6,0-3.5-0.1c-0.6,0-1.1-0.1-1.6-0.3
			c-0.4-0.1-0.7-0.4-1-0.7c-0.3-0.3-0.5-0.6-0.7-1c-0.2-0.5-0.3-1.1-0.3-1.6c0-0.9-0.1-1.2-0.1-3.5s0-2.6,0.1-3.5
			c0-0.6,0.1-1.1,0.3-1.6c0.1-0.4,0.4-0.7,0.7-1c0.3-0.3,0.6-0.5,1-0.7c0.5-0.2,1.1-0.3,1.6-0.3C6.1,1.6,6.4,1.6,8.8,1.6 M8.8,0
			C6.4,0,6.1,0,5.2,0.1C4.4,0.1,3.7,0.2,3,0.5C2.4,0.7,1.9,1,1.5,1.5C1,1.9,0.7,2.4,0.5,3C0.2,3.7,0.1,4.4,0.1,5.2
			C0,6.1,0,6.4,0,8.8s0,2.7,0.1,3.6c0,0.7,0.2,1.4,0.4,2.1c0.2,0.6,0.6,1.1,1,1.6c0.4,0.4,1,0.8,1.6,1c0.7,0.3,1.4,0.4,2.1,0.4
			c0.9,0,1.2,0.1,3.6,0.1s2.7,0,3.6-0.1c0.7,0,1.4-0.2,2.1-0.4c0.6-0.2,1.1-0.6,1.6-1c0.4-0.4,0.8-1,1-1.6c0.3-0.7,0.4-1.4,0.4-2.1
			c0-0.9,0.1-1.2,0.1-3.6s0-2.7-0.1-3.6c0-0.7-0.2-1.4-0.4-2.1c-0.2-0.6-0.6-1.1-1-1.6c-0.4-0.4-1-0.8-1.6-1
			c-0.7-0.3-1.4-0.4-2.1-0.4C11.4,0,11.1,0,8.8,0L8.8,0z"/>
		<path id="Path_36" class="st1" d="M8.8,4.3c-2.5,0-4.5,2-4.5,4.5s2,4.5,4.5,4.5s4.5-2,4.5-4.5S11.2,4.3,8.8,4.3z M8.8,11.7
			c-1.6,0-2.9-1.3-2.9-2.9c0-1.6,1.3-2.9,2.9-2.9c1.6,0,2.9,1.3,2.9,2.9C11.7,10.4,10.4,11.7,8.8,11.7C8.8,11.7,8.8,11.7,8.8,11.7
			L8.8,11.7z"/>
		<circle id="Ellipse_7" class="st1" cx="13.4" cy="4.1" r="1.1"/>
	</g>
</g>
</svg>
