<?xml version="1.0" encoding="utf-8"?>
<!-- Generator: Adobe Illustrator 26.5.0, SVG Export Plug-In . SVG Version: 6.00 Build 0)  -->
<svg version="1.1" id="Layer_1" xmlns="http://www.w3.org/2000/svg" xmlns:xlink="http://www.w3.org/1999/xlink" x="0px" y="0px"
	 viewBox="0 0 27 28" style="enable-background:new 0 0 27 28;" xml:space="preserve">
<style type="text/css">
	.st0{fill:#5F57A4;}
	.st1{fill:#FFFFFF;}
</style>
<g id="Group_1083" transform="translate(-306 -4774)">
	<ellipse id="Ellipse_10" class="st0" cx="319.5" cy="4788" rx="13.5" ry="14"/>
	<path id="social-twitter" class="st1" d="M317,4796.3c6,0,10.8-4.8,10.9-10.7v-0.6c0.8-0.5,1.4-1.2,1.9-1.9
		c-0.7,0.3-1.4,0.5-2.2,0.6c0.8-0.5,1.4-1.2,1.7-2.1c-0.8,0.4-1.6,0.7-2.5,0.9c-1.4-1.5-3.8-1.6-5.3-0.1c0,0-0.1,0.1-0.1,0.1
		c-0.7,0.6-1.1,1.4-1.2,2.3c0,0.3,0,0.6,0.1,0.9c-3.1-0.1-5.9-1.5-7.9-3.9c-0.4,0.6-0.5,1.3-0.5,1.9c0,1.3,0.6,2.4,1.7,3.1
		c-0.6,0-1.2-0.2-1.7-0.5l0,0c0,1.8,1.3,3.4,3.1,3.8c-0.3,0.1-0.7,0.1-1,0.1c-0.3,0-0.5,0-0.8-0.1c0.4,1.6,1.9,2.8,3.6,2.8
		c-1.4,1-3.1,1.6-4.8,1.7h-0.9C312.9,4795.7,314.9,4796.3,317,4796.3"/>
</g>
</svg>
