<?xml version="1.0" encoding="utf-8"?>
<!-- Generator: Adobe Illustrator 26.3.1, SVG Export Plug-In . SVG Version: 6.00 Build 0)  -->
<svg version="1.1" id="Layer_1" xmlns="http://www.w3.org/2000/svg" xmlns:xlink="http://www.w3.org/1999/xlink" x="0px" y="0px"
	 viewBox="0 0 26.4 26.4" style="enable-background:new 0 0 26.4 26.4;" xml:space="preserve">
<style type="text/css">
	.st0{fill:#FFB000;}
	.st1{fill:#FFFFFF;}
</style>
<g>
	<path id="XMLID_00000124148633777183718620000002397960481051624631_" class="st0" d="M26.4,13.2c0,7.3-5.9,13.2-13.2,13.2
		C5.9,26.4,0,20.5,0,13.2C0,5.9,5.9,0,13.2,0C20.5,0,26.4,5.9,26.4,13.2z"/>
	<path id="XMLID_00000027598938986559955440000008463287664313144986_" class="st1" d="M18.6,9.5c-0.1-0.4-0.3-0.7-0.7-1
		c-0.3-0.3-0.6-0.5-1-0.7c-0.4-0.1-0.8-0.2-1.4-0.3c-0.6,0-0.8,0-2.4,0c-1.6,0-1.7,0-2.4,0c-0.6,0-1,0.1-1.4,0.3
		c-0.4,0.1-0.7,0.3-1,0.7c-0.3,0.3-0.5,0.6-0.7,1c-0.1,0.4-0.2,0.8-0.3,1.4c0,0.6,0,0.8,0,2.4c0,1.6,0,1.7,0,2.4
		c0,0.6,0.1,1,0.3,1.4c0.1,0.4,0.3,0.7,0.7,1c0.3,0.3,0.6,0.5,1,0.7c0.4,0.1,0.8,0.2,1.4,0.3c0.6,0,0.8,0,2.4,0c1.6,0,1.7,0,2.4,0
		c0.6,0,1-0.1,1.4-0.3c0.4-0.1,0.7-0.3,1-0.7c0.3-0.3,0.5-0.6,0.7-1c0.1-0.4,0.2-0.8,0.3-1.4c0-0.6,0-0.8,0-2.4c0-1.6,0-1.7,0-2.4
		C18.9,10.2,18.8,9.8,18.6,9.5z M17.9,15.5c0,0.6-0.1,0.9-0.2,1.1c-0.1,0.3-0.2,0.5-0.4,0.7c-0.2,0.2-0.4,0.3-0.7,0.4
		c-0.2,0.1-0.5,0.2-1.1,0.2c-0.6,0-0.8,0-2.3,0c-1.5,0-1.7,0-2.3,0c-0.6,0-0.9-0.1-1.1-0.2c-0.3-0.1-0.5-0.2-0.7-0.4
		C9,17,8.9,16.8,8.7,16.6c-0.1-0.2-0.2-0.5-0.2-1.1c0-0.6,0-0.8,0-2.3c0-1.5,0-1.7,0-2.3c0-0.6,0.1-0.9,0.2-1.1
		C8.9,9.6,9,9.4,9.2,9.2C9.4,9,9.6,8.9,9.8,8.7c0.2-0.1,0.5-0.2,1.1-0.2c0.6,0,0.8,0,2.3,0c1.5,0,1.7,0,2.3,0c0.6,0,0.9,0.1,1.1,0.2
		C16.8,8.9,17,9,17.2,9.2c0.2,0.2,0.3,0.4,0.4,0.7c0.1,0.2,0.2,0.5,0.2,1.1c0,0.6,0,0.8,0,2.3C17.9,14.7,17.9,14.9,17.9,15.5z"/>
	<path id="XMLID_00000098922955761548820680000008787197149484559262_" class="st1" d="M13.2,10.3c-1.6,0-2.9,1.3-2.9,2.9
		c0,1.6,1.3,2.9,2.9,2.9s2.9-1.3,2.9-2.9C16.1,11.6,14.8,10.3,13.2,10.3z M13.2,15.1c-1.1,0-1.9-0.9-1.9-1.9c0-1.1,0.9-1.9,1.9-1.9
		s1.9,0.9,1.9,1.9C15.1,14.3,14.3,15.1,13.2,15.1z"/>
	<path id="XMLID_00000145754897212719456900000014203867132170854288_" class="st1" d="M16.3,9.5c-0.4,0-0.7,0.3-0.7,0.7
		c0,0.4,0.3,0.7,0.7,0.7c0.4,0,0.7-0.3,0.7-0.7C16.9,9.8,16.6,9.5,16.3,9.5z"/>
</g>
</svg>
